<?xml version="1.0" encoding="UTF-8" standalone="no"?><svg xmlns="http://www.w3.org/2000/svg" xmlns:xlink="http://www.w3.org/1999/xlink" contentScriptType="application/ecmascript" contentStyleType="text/css" height="769px" preserveAspectRatio="none" style="width:672px;height:769px;" version="1.1" viewBox="0 0 672 769" width="672px" zoomAndPan="magnify"><defs><filter height="300%" id="fvrw6v1" width="300%" x="-1" y="-1"><feGaussianBlur result="blurOut" stdDeviation="2.0"/><feColorMatrix in="blurOut" result="blurOut2" type="matrix" values="0 0 0 0 0 0 0 0 0 0 0 0 0 0 0 0 0 0 .4 0"/><feOffset dx="4.0" dy="4.0" in="blurOut2" result="blurOut3"/><feBlend in="SourceGraphic" in2="blurOut3" mode="normal"/></filter></defs><g><!--cluster util--><polygon fill="#FFFFFF" filter="url(#fvrw6v1)" points="395,491,425,491,432,513.2969,665,513.2969,665,762,395,762,395,491" style="stroke: #000000; stroke-width: 2.0;"/><line style="stroke: #000000; stroke-width: 2.0;" x1="395" x2="432" y1="513.2969" y2="513.2969"/><text fill="#000000" font-family="sans-serif" font-size="14" font-weight="bold" lengthAdjust="spacingAndGlyphs" textLength="24" x="399" y="505.9951">util</text><!--cluster estoque--><polygon fill="#FFFFFF" filter="url(#fvrw6v1)" points="22,24,93,24,100,46.2969,544,46.2969,544,467,22,467,22,24" style="stroke: #000000; stroke-width: 2.0;"/><line style="stroke: #000000; stroke-width: 2.0;" x1="22" x2="100" y1="46.2969" y2="46.2969"/><text fill="#000000" font-family="sans-serif" font-size="14" font-weight="bold" lengthAdjust="spacingAndGlyphs" textLength="65" x="26" y="38.9951">estoque</text><!--class Regiao--><rect fill="#FEFECE" filter="url(#fvrw6v1)" height="73.6094" style="stroke: #A80036; stroke-width: 1.5;" width="101" x="547.5" y="672"/><ellipse cx="574.2" cy="688" fill="#ADD1B2" rx="11" ry="11" style="stroke: #A80036; stroke-width: 1.0;"/><path d="M577.1688,693.6406 Q576.5906,693.9375 575.95,694.0859 Q575.3094,694.2344 574.6063,694.2344 Q572.1063,694.2344 570.7859,692.5859 Q569.4656,690.9375 569.4656,687.8125 Q569.4656,684.6875 570.7859,683.0313 Q572.1063,681.375 574.6063,681.375 Q575.3094,681.375 575.9578,681.5313 Q576.6063,681.6875 577.1688,681.9844 L577.1688,684.7031 Q576.5438,684.125 575.95,683.8516 Q575.3563,683.5781 574.7313,683.5781 Q573.3875,683.5781 572.7,684.6484 Q572.0125,685.7188 572.0125,687.8125 Q572.0125,689.9063 572.7,690.9766 Q573.3875,692.0469 574.7313,692.0469 Q575.3563,692.0469 575.95,691.7734 Q576.5438,691.5 577.1688,690.9219 L577.1688,693.6406 Z "/><text fill="#000000" font-family="sans-serif" font-size="12" lengthAdjust="spacingAndGlyphs" textLength="43" x="590.8" y="692.1543">Regiao</text><line style="stroke: #A80036; stroke-width: 1.5;" x1="548.5" x2="647.5" y1="704" y2="704"/><text fill="#000000" font-family="sans-serif" font-size="11" lengthAdjust="spacingAndGlyphs" textLength="89" x="553.5" y="718.2104">CharField nome</text><text fill="#000000" font-family="sans-serif" font-size="11" lengthAdjust="spacingAndGlyphs" textLength="82" x="553.5" y="731.0151">Charfield sigla</text><line style="stroke: #A80036; stroke-width: 1.5;" x1="548.5" x2="647.5" y1="737.6094" y2="737.6094"/><!--class Estado--><rect fill="#FEFECE" filter="url(#fvrw6v1)" height="86.4141" style="stroke: #A80036; stroke-width: 1.5;" width="101" x="547.5" y="526"/><ellipse cx="573.75" cy="542" fill="#ADD1B2" rx="11" ry="11" style="stroke: #A80036; stroke-width: 1.0;"/><path d="M576.7188,547.6406 Q576.1406,547.9375 575.5,548.0859 Q574.8594,548.2344 574.1563,548.2344 Q571.6563,548.2344 570.3359,546.5859 Q569.0156,544.9375 569.0156,541.8125 Q569.0156,538.6875 570.3359,537.0313 Q571.6563,535.375 574.1563,535.375 Q574.8594,535.375 575.5078,535.5313 Q576.1563,535.6875 576.7188,535.9844 L576.7188,538.7031 Q576.0938,538.125 575.5,537.8516 Q574.9063,537.5781 574.2813,537.5781 Q572.9375,537.5781 572.25,538.6484 Q571.5625,539.7188 571.5625,541.8125 Q571.5625,543.9063 572.25,544.9766 Q572.9375,546.0469 574.2813,546.0469 Q574.9063,546.0469 575.5,545.7734 Q576.0938,545.5 576.7188,544.9219 L576.7188,547.6406 Z "/><text fill="#000000" font-family="sans-serif" font-size="12" lengthAdjust="spacingAndGlyphs" textLength="44" x="590.25" y="546.1543">Estado</text><line style="stroke: #A80036; stroke-width: 1.5;" x1="548.5" x2="647.5" y1="558" y2="558"/><text fill="#000000" font-family="sans-serif" font-size="11" lengthAdjust="spacingAndGlyphs" textLength="89" x="553.5" y="572.2104">CharField nome</text><text fill="#000000" font-family="sans-serif" font-size="11" lengthAdjust="spacingAndGlyphs" textLength="82" x="553.5" y="585.0151">Charfield sigla</text><text fill="#000000" font-family="sans-serif" font-size="11" lengthAdjust="spacingAndGlyphs" textLength="78" x="553.5" y="597.8198">Regiao regiao</text><line style="stroke: #A80036; stroke-width: 1.5;" x1="548.5" x2="647.5" y1="604.4141" y2="604.4141"/><!--class Cidade--><rect fill="#FEFECE" filter="url(#fvrw6v1)" height="86.4141" style="stroke: #A80036; stroke-width: 1.5;" width="101" x="411.5" y="526"/><ellipse cx="438.2" cy="542" fill="#ADD1B2" rx="11" ry="11" style="stroke: #A80036; stroke-width: 1.0;"/><path d="M441.1688,547.6406 Q440.5906,547.9375 439.95,548.0859 Q439.3094,548.2344 438.6063,548.2344 Q436.1063,548.2344 434.7859,546.5859 Q433.4656,544.9375 433.4656,541.8125 Q433.4656,538.6875 434.7859,537.0313 Q436.1063,535.375 438.6063,535.375 Q439.3094,535.375 439.9578,535.5313 Q440.6063,535.6875 441.1688,535.9844 L441.1688,538.7031 Q440.5438,538.125 439.95,537.8516 Q439.3563,537.5781 438.7313,537.5781 Q437.3875,537.5781 436.7,538.6484 Q436.0125,539.7188 436.0125,541.8125 Q436.0125,543.9063 436.7,544.9766 Q437.3875,546.0469 438.7313,546.0469 Q439.3563,546.0469 439.95,545.7734 Q440.5438,545.5 441.1688,544.9219 L441.1688,547.6406 Z "/><text fill="#000000" font-family="sans-serif" font-size="12" lengthAdjust="spacingAndGlyphs" textLength="43" x="454.8" y="546.1543">Cidade</text><line style="stroke: #A80036; stroke-width: 1.5;" x1="412.5" x2="511.5" y1="558" y2="558"/><text fill="#000000" font-family="sans-serif" font-size="11" lengthAdjust="spacingAndGlyphs" textLength="89" x="417.5" y="572.2104">CharField nome</text><text fill="#000000" font-family="sans-serif" font-size="11" lengthAdjust="spacingAndGlyphs" textLength="76" x="417.5" y="585.0151">Charfield ddd</text><text fill="#000000" font-family="sans-serif" font-size="11" lengthAdjust="spacingAndGlyphs" textLength="79" x="417.5" y="597.8198">Estado regiao</text><line style="stroke: #A80036; stroke-width: 1.5;" x1="412.5" x2="511.5" y1="604.4141" y2="604.4141"/><!--class Estoque--><rect fill="#FEFECE" filter="url(#fvrw6v1)" height="112.0234" style="stroke: #A80036; stroke-width: 1.5;" width="150" x="38" y="59"/><ellipse cx="82.75" cy="75" fill="#ADD1B2" rx="11" ry="11" style="stroke: #A80036; stroke-width: 1.0;"/><path d="M85.7188,80.6406 Q85.1406,80.9375 84.5,81.0859 Q83.8594,81.2344 83.1563,81.2344 Q80.6563,81.2344 79.3359,79.5859 Q78.0156,77.9375 78.0156,74.8125 Q78.0156,71.6875 79.3359,70.0313 Q80.6563,68.375 83.1563,68.375 Q83.8594,68.375 84.5078,68.5313 Q85.1563,68.6875 85.7188,68.9844 L85.7188,71.7031 Q85.0938,71.125 84.5,70.8516 Q83.9063,70.5781 83.2813,70.5781 Q81.9375,70.5781 81.25,71.6484 Q80.5625,72.7188 80.5625,74.8125 Q80.5625,76.9063 81.25,77.9766 Q81.9375,79.0469 83.2813,79.0469 Q83.9063,79.0469 84.5,78.7734 Q85.0938,78.5 85.7188,77.9219 L85.7188,80.6406 Z "/><text fill="#000000" font-family="sans-serif" font-size="12" lengthAdjust="spacingAndGlyphs" textLength="52" x="103.25" y="79.1543">Estoque</text><line style="stroke: #A80036; stroke-width: 1.5;" x1="39" x2="187" y1="91" y2="91"/><text fill="#000000" font-family="sans-serif" font-size="11" lengthAdjust="spacingAndGlyphs" textLength="49" x="44" y="105.2104">Lote lote</text><text fill="#000000" font-family="sans-serif" font-size="11" lengthAdjust="spacingAndGlyphs" textLength="138" x="44" y="118.0151">DecimalFIeld quantidade</text><text fill="#000000" font-family="sans-serif" font-size="11" lengthAdjust="spacingAndGlyphs" textLength="114" x="44" y="130.8198">Prateleira prateleira</text><line style="stroke: #A80036; stroke-width: 1.5;" x1="39" x2="187" y1="137.4141" y2="137.4141"/><text fill="#000000" font-family="sans-serif" font-size="11" lengthAdjust="spacingAndGlyphs" textLength="104" x="44" y="151.6245">def acionar(quant)</text><text fill="#000000" font-family="sans-serif" font-size="11" lengthAdjust="spacingAndGlyphs" textLength="107" x="44" y="164.4292">def subtrair(quant)</text><!--class Lote--><rect fill="#FEFECE" filter="url(#fvrw6v1)" height="86.4141" style="stroke: #A80036; stroke-width: 1.5;" width="146" x="223" y="72"/><ellipse cx="278.25" cy="88" fill="#ADD1B2" rx="11" ry="11" style="stroke: #A80036; stroke-width: 1.0;"/><path d="M281.2188,93.6406 Q280.6406,93.9375 280,94.0859 Q279.3594,94.2344 278.6563,94.2344 Q276.1563,94.2344 274.8359,92.5859 Q273.5156,90.9375 273.5156,87.8125 Q273.5156,84.6875 274.8359,83.0313 Q276.1563,81.375 278.6563,81.375 Q279.3594,81.375 280.0078,81.5313 Q280.6563,81.6875 281.2188,81.9844 L281.2188,84.7031 Q280.5938,84.125 280,83.8516 Q279.4063,83.5781 278.7813,83.5781 Q277.4375,83.5781 276.75,84.6484 Q276.0625,85.7188 276.0625,87.8125 Q276.0625,89.9063 276.75,90.9766 Q277.4375,92.0469 278.7813,92.0469 Q279.4063,92.0469 280,91.7734 Q280.5938,91.5 281.2188,90.9219 L281.2188,93.6406 Z "/><text fill="#000000" font-family="sans-serif" font-size="12" lengthAdjust="spacingAndGlyphs" textLength="27" x="298.75" y="92.1543">Lote</text><line style="stroke: #A80036; stroke-width: 1.5;" x1="224" x2="368" y1="104" y2="104"/><text fill="#000000" font-family="sans-serif" font-size="11" lengthAdjust="spacingAndGlyphs" textLength="94" x="229" y="118.2104">CharField codigo</text><text fill="#000000" font-family="sans-serif" font-size="11" lengthAdjust="spacingAndGlyphs" textLength="134" x="229" y="131.0151">DataField data_validade</text><text fill="#000000" font-family="sans-serif" font-size="11" lengthAdjust="spacingAndGlyphs" textLength="92" x="229" y="143.8198">Produto produto</text><line style="stroke: #A80036; stroke-width: 1.5;" x1="224" x2="368" y1="150.4141" y2="150.4141"/><!--class Prateleira--><rect fill="#FEFECE" filter="url(#fvrw6v1)" height="73.6094" style="stroke: #A80036; stroke-width: 1.5;" width="124" x="88" y="231"/><ellipse cx="116.95" cy="247" fill="#ADD1B2" rx="11" ry="11" style="stroke: #A80036; stroke-width: 1.0;"/><path d="M119.9188,252.6406 Q119.3406,252.9375 118.7,253.0859 Q118.0594,253.2344 117.3563,253.2344 Q114.8563,253.2344 113.5359,251.5859 Q112.2156,249.9375 112.2156,246.8125 Q112.2156,243.6875 113.5359,242.0313 Q114.8563,240.375 117.3563,240.375 Q118.0594,240.375 118.7078,240.5313 Q119.3563,240.6875 119.9188,240.9844 L119.9188,243.7031 Q119.2938,243.125 118.7,242.8516 Q118.1063,242.5781 117.4813,242.5781 Q116.1375,242.5781 115.45,243.6484 Q114.7625,244.7188 114.7625,246.8125 Q114.7625,248.9063 115.45,249.9766 Q116.1375,251.0469 117.4813,251.0469 Q118.1063,251.0469 118.7,250.7734 Q119.2938,250.5 119.9188,249.9219 L119.9188,252.6406 Z "/><text fill="#000000" font-family="sans-serif" font-size="12" lengthAdjust="spacingAndGlyphs" textLength="61" x="134.05" y="251.1543">Prateleira</text><line style="stroke: #A80036; stroke-width: 1.5;" x1="89" x2="211" y1="263" y2="263"/><text fill="#000000" font-family="sans-serif" font-size="11" lengthAdjust="spacingAndGlyphs" textLength="94" x="94" y="277.2104">CharField codigo</text><text fill="#000000" font-family="sans-serif" font-size="11" lengthAdjust="spacingAndGlyphs" textLength="112" x="94" y="290.0151">Categoria categoria</text><line style="stroke: #A80036; stroke-width: 1.5;" x1="89" x2="211" y1="296.6094" y2="296.6094"/><!--class Categoria--><rect fill="#FEFECE" filter="url(#fvrw6v1)" height="60.8047" style="stroke: #A80036; stroke-width: 1.5;" width="101" x="185.5" y="377.5"/><ellipse cx="204.1" cy="393.5" fill="#ADD1B2" rx="11" ry="11" style="stroke: #A80036; stroke-width: 1.0;"/><path d="M207.0688,399.1406 Q206.4906,399.4375 205.85,399.5859 Q205.2094,399.7344 204.5063,399.7344 Q202.0063,399.7344 200.6859,398.0859 Q199.3656,396.4375 199.3656,393.3125 Q199.3656,390.1875 200.6859,388.5313 Q202.0063,386.875 204.5063,386.875 Q205.2094,386.875 205.8578,387.0313 Q206.5063,387.1875 207.0688,387.4844 L207.0688,390.2031 Q206.4438,389.625 205.85,389.3516 Q205.2563,389.0781 204.6313,389.0781 Q203.2875,389.0781 202.6,390.1484 Q201.9125,391.2188 201.9125,393.3125 Q201.9125,395.4063 202.6,396.4766 Q203.2875,397.5469 204.6313,397.5469 Q205.2563,397.5469 205.85,397.2734 Q206.4438,397 207.0688,396.4219 L207.0688,399.1406 Z "/><text fill="#000000" font-family="sans-serif" font-size="12" lengthAdjust="spacingAndGlyphs" textLength="61" x="218.9" y="397.6543">Categoria</text><line style="stroke: #A80036; stroke-width: 1.5;" x1="186.5" x2="285.5" y1="409.5" y2="409.5"/><text fill="#000000" font-family="sans-serif" font-size="11" lengthAdjust="spacingAndGlyphs" textLength="89" x="191.5" y="423.7104">CharField nome</text><line style="stroke: #A80036; stroke-width: 1.5;" x1="186.5" x2="285.5" y1="430.3047" y2="430.3047"/><!--class Produto--><rect fill="#FEFECE" filter="url(#fvrw6v1)" height="99.2188" style="stroke: #A80036; stroke-width: 1.5;" width="124" x="404" y="65.5"/><ellipse cx="437.9" cy="81.5" fill="#ADD1B2" rx="11" ry="11" style="stroke: #A80036; stroke-width: 1.0;"/><path d="M440.8688,87.1406 Q440.2906,87.4375 439.65,87.5859 Q439.0094,87.7344 438.3063,87.7344 Q435.8063,87.7344 434.4859,86.0859 Q433.1656,84.4375 433.1656,81.3125 Q433.1656,78.1875 434.4859,76.5313 Q435.8063,74.875 438.3063,74.875 Q439.0094,74.875 439.6578,75.0313 Q440.3063,75.1875 440.8688,75.4844 L440.8688,78.2031 Q440.2438,77.625 439.65,77.3516 Q439.0563,77.0781 438.4313,77.0781 Q437.0875,77.0781 436.4,78.1484 Q435.7125,79.2188 435.7125,81.3125 Q435.7125,83.4063 436.4,84.4766 Q437.0875,85.5469 438.4313,85.5469 Q439.0563,85.5469 439.65,85.2734 Q440.2438,85 440.8688,84.4219 L440.8688,87.1406 Z "/><text fill="#000000" font-family="sans-serif" font-size="12" lengthAdjust="spacingAndGlyphs" textLength="50" x="456.1" y="85.6543">Produto</text><line style="stroke: #A80036; stroke-width: 1.5;" x1="405" x2="527" y1="97.5" y2="97.5"/><text fill="#000000" font-family="sans-serif" font-size="11" lengthAdjust="spacingAndGlyphs" textLength="94" x="410" y="111.7104">CharField codigo</text><text fill="#000000" font-family="sans-serif" font-size="11" lengthAdjust="spacingAndGlyphs" textLength="89" x="410" y="124.5151">CharField nome</text><text fill="#000000" font-family="sans-serif" font-size="11" lengthAdjust="spacingAndGlyphs" textLength="74" x="410" y="137.3198">Marca marca</text><text fill="#000000" font-family="sans-serif" font-size="11" lengthAdjust="spacingAndGlyphs" textLength="112" x="410" y="150.1245">Categoria categoria</text><line style="stroke: #A80036; stroke-width: 1.5;" x1="405" x2="527" y1="156.7188" y2="156.7188"/><!--class Marca--><rect fill="#FEFECE" filter="url(#fvrw6v1)" height="73.6094" style="stroke: #A80036; stroke-width: 1.5;" width="132" x="396" y="231"/><ellipse cx="438.9" cy="247" fill="#ADD1B2" rx="11" ry="11" style="stroke: #A80036; stroke-width: 1.0;"/><path d="M441.8688,252.6406 Q441.2906,252.9375 440.65,253.0859 Q440.0094,253.2344 439.3063,253.2344 Q436.8063,253.2344 435.4859,251.5859 Q434.1656,249.9375 434.1656,246.8125 Q434.1656,243.6875 435.4859,242.0313 Q436.8063,240.375 439.3063,240.375 Q440.0094,240.375 440.6578,240.5313 Q441.3063,240.6875 441.8688,240.9844 L441.8688,243.7031 Q441.2438,243.125 440.65,242.8516 Q440.0563,242.5781 439.4313,242.5781 Q438.0875,242.5781 437.4,243.6484 Q436.7125,244.7188 436.7125,246.8125 Q436.7125,248.9063 437.4,249.9766 Q438.0875,251.0469 439.4313,251.0469 Q440.0563,251.0469 440.65,250.7734 Q441.2438,250.5 441.8688,249.9219 L441.8688,252.6406 Z "/><text fill="#000000" font-family="sans-serif" font-size="12" lengthAdjust="spacingAndGlyphs" textLength="38" x="459.1" y="251.1543">Marca</text><line style="stroke: #A80036; stroke-width: 1.5;" x1="397" x2="527" y1="263" y2="263"/><text fill="#000000" font-family="sans-serif" font-size="11" lengthAdjust="spacingAndGlyphs" textLength="89" x="402" y="277.2104">CharField nome</text><text fill="#000000" font-family="sans-serif" font-size="11" lengthAdjust="spacingAndGlyphs" textLength="120" x="402" y="290.0151">Fabricante fabricante</text><line style="stroke: #A80036; stroke-width: 1.5;" x1="397" x2="527" y1="296.6094" y2="296.6094"/><!--class Fabricante--><rect fill="#FEFECE" filter="url(#fvrw6v1)" height="86.4141" style="stroke: #A80036; stroke-width: 1.5;" width="120" x="402" y="365"/><ellipse cx="426.45" cy="381" fill="#ADD1B2" rx="11" ry="11" style="stroke: #A80036; stroke-width: 1.0;"/><path d="M429.4188,386.6406 Q428.8406,386.9375 428.2,387.0859 Q427.5594,387.2344 426.8563,387.2344 Q424.3563,387.2344 423.0359,385.5859 Q421.7156,383.9375 421.7156,380.8125 Q421.7156,377.6875 423.0359,376.0313 Q424.3563,374.375 426.8563,374.375 Q427.5594,374.375 428.2078,374.5313 Q428.8563,374.6875 429.4188,374.9844 L429.4188,377.7031 Q428.7938,377.125 428.2,376.8516 Q427.6063,376.5781 426.9813,376.5781 Q425.6375,376.5781 424.95,377.6484 Q424.2625,378.7188 424.2625,380.8125 Q424.2625,382.9063 424.95,383.9766 Q425.6375,385.0469 426.9813,385.0469 Q427.6063,385.0469 428.2,384.7734 Q428.7938,384.5 429.4188,383.9219 L429.4188,386.6406 Z "/><text fill="#000000" font-family="sans-serif" font-size="12" lengthAdjust="spacingAndGlyphs" textLength="67" x="442.55" y="385.1543">Fabricante</text><line style="stroke: #A80036; stroke-width: 1.5;" x1="403" x2="521" y1="397" y2="397"/><text fill="#000000" font-family="sans-serif" font-size="11" lengthAdjust="spacingAndGlyphs" textLength="87" x="408" y="411.2104">Charfield nome</text><text fill="#000000" font-family="sans-serif" font-size="11" lengthAdjust="spacingAndGlyphs" textLength="108" x="408" y="424.0151">Charfield endereco</text><text fill="#000000" font-family="sans-serif" font-size="11" lengthAdjust="spacingAndGlyphs" textLength="80" x="408" y="436.8198">Cidade cidade</text><line style="stroke: #A80036; stroke-width: 1.5;" x1="403" x2="521" y1="443.4141" y2="443.4141"/><path d="M598,625.5467 C598,641.16 598,657.7011 598,671.9032 " fill="none" style="stroke: #A80036; stroke-width: 1.0;"/><polygon fill="#A80036" points="598,612.147,594,618.147,598,624.147,602,618.147,598,612.147" style="stroke: #A80036; stroke-width: 1.0;"/><path d="M525.9947,569 C533.121,569 540.2472,569 547.3735,569 " fill="none" style="stroke: #A80036; stroke-width: 1.0;"/><polygon fill="#A80036" points="512.7344,569,518.7344,573,524.7344,569,518.7344,565,512.7344,569" style="stroke: #A80036; stroke-width: 1.0;"/><path d="M201.2943,115 C208.4074,115 215.5205,115 222.6336,115 " fill="none" style="stroke: #A80036; stroke-width: 1.0;"/><polygon fill="#A80036" points="188.0586,115,194.0586,119,200.0586,115,194.0586,111,188.0586,115" style="stroke: #A80036; stroke-width: 1.0;"/><path d="M129.6723,183.9421 C133.5903,200.1439 137.6188,216.8022 141.0455,230.9721 " fill="none" style="stroke: #A80036; stroke-width: 1.0;"/><polygon fill="#A80036" points="126.5673,171.1028,124.0898,177.8749,129.3881,182.7666,131.8656,175.9944,126.5673,171.1028" style="stroke: #A80036; stroke-width: 1.0;"/><path d="M382.1128,115 C389.3717,115 396.6305,115 403.8894,115 " fill="none" style="stroke: #A80036; stroke-width: 1.0;"/><polygon fill="#A80036" points="369.0469,115,375.0469,119,381.0469,115,375.0469,111,369.0469,115" style="stroke: #A80036; stroke-width: 1.0;"/><path d="M179.7118,316.368 C192.1272,336.5792 206.1817,359.4585 217.1411,377.2994 " fill="none" style="stroke: #A80036; stroke-width: 1.0;"/><polygon fill="#A80036" points="172.8206,305.1499,172.5528,312.356,179.1016,315.3748,179.3694,308.1687,172.8206,305.1499" style="stroke: #A80036; stroke-width: 1.0;"/><path d="M464.3575,177.8238 C463.888,195.7859 463.3912,214.7877 462.9754,230.6928 " fill="none" style="stroke: #A80036; stroke-width: 1.0;"/><polygon fill="#A80036" points="464.7013,164.6747,460.5458,170.5681,464.3876,176.6706,468.5431,170.7772,464.7013,164.6747" style="stroke: #A80036; stroke-width: 1.0;"/><path d="M418.8678,175.0423 C370.6009,236.5302 297.4969,329.6584 260.0154,377.4064 " fill="none" style="stroke: #A80036; stroke-width: 1.0;"/><polygon fill="#A80036" points="426.9836,164.7035,420.1324,166.9533,419.5741,174.1427,426.4252,171.893,426.9836,164.7035" style="stroke: #A80036; stroke-width: 1.0;"/><path d="M462,318.1684 C462,333.4804 462,350.1724 462,364.9672 " fill="none" style="stroke: #A80036; stroke-width: 1.0;"/><polygon fill="#A80036" points="462,305.1499,458,311.1499,462,317.1499,466,311.1499,462,305.1499" style="stroke: #A80036; stroke-width: 1.0;"/><path d="M462,464.3361 C462,484.486 462,506.8622 462,525.7359 " fill="none" style="stroke: #A80036; stroke-width: 1.0;"/><polygon fill="#A80036" points="462,451.145,458,457.145,462,463.145,466,457.145,462,451.145" style="stroke: #A80036; stroke-width: 1.0;"/></g></svg>