<?xml version="1.0" encoding="UTF-8" standalone="no"?><svg xmlns="http://www.w3.org/2000/svg" xmlns:xlink="http://www.w3.org/1999/xlink" contentScriptType="application/ecmascript" contentStyleType="text/css" height="941px" preserveAspectRatio="none" style="width:1601px;height:941px;" version="1.1" viewBox="0 0 1601 941" width="1601px" zoomAndPan="magnify"><defs><filter height="300%" id="f416ad7" width="300%" x="-1" y="-1"><feGaussianBlur result="blurOut" stdDeviation="2.0"/><feColorMatrix in="blurOut" result="blurOut2" type="matrix" values="0 0 0 0 0 0 0 0 0 0 0 0 0 0 0 0 0 0 .4 0"/><feOffset dx="4.0" dy="4.0" in="blurOut2" result="blurOut3"/><feBlend in="SourceGraphic" in2="blurOut3" mode="normal"/></filter></defs><g><!--cluster util--><polygon fill="#FFFFFF" filter="url(#f416ad7)" points="1066,663,1096,663,1103,685.2969,1336,685.2969,1336,934,1066,934,1066,663" style="stroke: #000000; stroke-width: 2.0;"/><line style="stroke: #000000; stroke-width: 2.0;" x1="1066" x2="1103" y1="685.2969" y2="685.2969"/><text fill="#000000" font-family="sans-serif" font-size="14" font-weight="bold" lengthAdjust="spacingAndGlyphs" textLength="24" x="1070" y="677.9951">util</text><!--cluster estoque--><polygon fill="#FFFFFF" filter="url(#f416ad7)" points="546,209,617,209,624,231.2969,1215,231.2969,1215,639,546,639,546,209" style="stroke: #000000; stroke-width: 2.0;"/><line style="stroke: #000000; stroke-width: 2.0;" x1="546" x2="624" y1="231.2969" y2="231.2969"/><text fill="#000000" font-family="sans-serif" font-size="14" font-weight="bold" lengthAdjust="spacingAndGlyphs" textLength="65" x="550" y="223.9951">estoque</text><!--cluster compra--><polygon fill="#FFFFFF" filter="url(#f416ad7)" points="22,24,87,24,94,46.2969,522,46.2969,522,352.5,22,352.5,22,24" style="stroke: #000000; stroke-width: 2.0;"/><line style="stroke: #000000; stroke-width: 2.0;" x1="22" x2="94" y1="46.2969" y2="46.2969"/><text fill="#000000" font-family="sans-serif" font-size="14" font-weight="bold" lengthAdjust="spacingAndGlyphs" textLength="59" x="26" y="38.9951">compra</text><!--cluster venda--><polygon fill="#FFFFFF" filter="url(#f416ad7)" points="1239,37,1293,37,1300,59.2969,1594,59.2969,1594,340,1239,340,1239,37" style="stroke: #000000; stroke-width: 2.0;"/><line style="stroke: #000000; stroke-width: 2.0;" x1="1239" x2="1300" y1="59.2969" y2="59.2969"/><text fill="#000000" font-family="sans-serif" font-size="14" font-weight="bold" lengthAdjust="spacingAndGlyphs" textLength="48" x="1243" y="51.9951">venda</text><!--class Regiao--><rect fill="#FEFECE" filter="url(#f416ad7)" height="73.6094" style="stroke: #A80036; stroke-width: 1.5;" width="101" x="1218.5" y="844"/><ellipse cx="1245.2" cy="860" fill="#ADD1B2" rx="11" ry="11" style="stroke: #A80036; stroke-width: 1.0;"/><path d="M1248.1688,865.6406 Q1247.5906,865.9375 1246.95,866.0859 Q1246.3094,866.2344 1245.6063,866.2344 Q1243.1063,866.2344 1241.7859,864.5859 Q1240.4656,862.9375 1240.4656,859.8125 Q1240.4656,856.6875 1241.7859,855.0313 Q1243.1063,853.375 1245.6063,853.375 Q1246.3094,853.375 1246.9578,853.5313 Q1247.6063,853.6875 1248.1688,853.9844 L1248.1688,856.7031 Q1247.5438,856.125 1246.95,855.8516 Q1246.3563,855.5781 1245.7313,855.5781 Q1244.3875,855.5781 1243.7,856.6484 Q1243.0125,857.7188 1243.0125,859.8125 Q1243.0125,861.9063 1243.7,862.9766 Q1244.3875,864.0469 1245.7313,864.0469 Q1246.3563,864.0469 1246.95,863.7734 Q1247.5438,863.5 1248.1688,862.9219 L1248.1688,865.6406 Z "/><text fill="#000000" font-family="sans-serif" font-size="12" lengthAdjust="spacingAndGlyphs" textLength="43" x="1261.8" y="864.1543">Regiao</text><line style="stroke: #A80036; stroke-width: 1.5;" x1="1219.5" x2="1318.5" y1="876" y2="876"/><text fill="#000000" font-family="sans-serif" font-size="11" lengthAdjust="spacingAndGlyphs" textLength="89" x="1224.5" y="890.2104">CharField nome</text><text fill="#000000" font-family="sans-serif" font-size="11" lengthAdjust="spacingAndGlyphs" textLength="82" x="1224.5" y="903.0151">Charfield sigla</text><line style="stroke: #A80036; stroke-width: 1.5;" x1="1219.5" x2="1318.5" y1="909.6094" y2="909.6094"/><!--class Estado--><rect fill="#FEFECE" filter="url(#f416ad7)" height="86.4141" style="stroke: #A80036; stroke-width: 1.5;" width="101" x="1218.5" y="698"/><ellipse cx="1244.75" cy="714" fill="#ADD1B2" rx="11" ry="11" style="stroke: #A80036; stroke-width: 1.0;"/><path d="M1247.7188,719.6406 Q1247.1406,719.9375 1246.5,720.0859 Q1245.8594,720.2344 1245.1563,720.2344 Q1242.6563,720.2344 1241.3359,718.5859 Q1240.0156,716.9375 1240.0156,713.8125 Q1240.0156,710.6875 1241.3359,709.0313 Q1242.6563,707.375 1245.1563,707.375 Q1245.8594,707.375 1246.5078,707.5313 Q1247.1563,707.6875 1247.7188,707.9844 L1247.7188,710.7031 Q1247.0938,710.125 1246.5,709.8516 Q1245.9063,709.5781 1245.2813,709.5781 Q1243.9375,709.5781 1243.25,710.6484 Q1242.5625,711.7188 1242.5625,713.8125 Q1242.5625,715.9063 1243.25,716.9766 Q1243.9375,718.0469 1245.2813,718.0469 Q1245.9063,718.0469 1246.5,717.7734 Q1247.0938,717.5 1247.7188,716.9219 L1247.7188,719.6406 Z "/><text fill="#000000" font-family="sans-serif" font-size="12" lengthAdjust="spacingAndGlyphs" textLength="44" x="1261.25" y="718.1543">Estado</text><line style="stroke: #A80036; stroke-width: 1.5;" x1="1219.5" x2="1318.5" y1="730" y2="730"/><text fill="#000000" font-family="sans-serif" font-size="11" lengthAdjust="spacingAndGlyphs" textLength="89" x="1224.5" y="744.2104">CharField nome</text><text fill="#000000" font-family="sans-serif" font-size="11" lengthAdjust="spacingAndGlyphs" textLength="82" x="1224.5" y="757.0151">Charfield sigla</text><text fill="#000000" font-family="sans-serif" font-size="11" lengthAdjust="spacingAndGlyphs" textLength="78" x="1224.5" y="769.8198">Regiao regiao</text><line style="stroke: #A80036; stroke-width: 1.5;" x1="1219.5" x2="1318.5" y1="776.4141" y2="776.4141"/><!--class Cidade--><rect fill="#FEFECE" filter="url(#f416ad7)" height="86.4141" style="stroke: #A80036; stroke-width: 1.5;" width="101" x="1082.5" y="698"/><ellipse cx="1109.2" cy="714" fill="#ADD1B2" rx="11" ry="11" style="stroke: #A80036; stroke-width: 1.0;"/><path d="M1112.1688,719.6406 Q1111.5906,719.9375 1110.95,720.0859 Q1110.3094,720.2344 1109.6063,720.2344 Q1107.1063,720.2344 1105.7859,718.5859 Q1104.4656,716.9375 1104.4656,713.8125 Q1104.4656,710.6875 1105.7859,709.0313 Q1107.1063,707.375 1109.6063,707.375 Q1110.3094,707.375 1110.9578,707.5313 Q1111.6063,707.6875 1112.1688,707.9844 L1112.1688,710.7031 Q1111.5438,710.125 1110.95,709.8516 Q1110.3563,709.5781 1109.7313,709.5781 Q1108.3875,709.5781 1107.7,710.6484 Q1107.0125,711.7188 1107.0125,713.8125 Q1107.0125,715.9063 1107.7,716.9766 Q1108.3875,718.0469 1109.7313,718.0469 Q1110.3563,718.0469 1110.95,717.7734 Q1111.5438,717.5 1112.1688,716.9219 L1112.1688,719.6406 Z "/><text fill="#000000" font-family="sans-serif" font-size="12" lengthAdjust="spacingAndGlyphs" textLength="43" x="1125.8" y="718.1543">Cidade</text><line style="stroke: #A80036; stroke-width: 1.5;" x1="1083.5" x2="1182.5" y1="730" y2="730"/><text fill="#000000" font-family="sans-serif" font-size="11" lengthAdjust="spacingAndGlyphs" textLength="89" x="1088.5" y="744.2104">CharField nome</text><text fill="#000000" font-family="sans-serif" font-size="11" lengthAdjust="spacingAndGlyphs" textLength="76" x="1088.5" y="757.0151">Charfield ddd</text><text fill="#000000" font-family="sans-serif" font-size="11" lengthAdjust="spacingAndGlyphs" textLength="79" x="1088.5" y="769.8198">Estado regiao</text><line style="stroke: #A80036; stroke-width: 1.5;" x1="1083.5" x2="1182.5" y1="776.4141" y2="776.4141"/><!--class Categoria--><rect fill="#FEFECE" filter="url(#f416ad7)" height="60.8047" style="stroke: #A80036; stroke-width: 1.5;" width="101" x="753.5" y="409.5"/><ellipse cx="772.1" cy="425.5" fill="#ADD1B2" rx="11" ry="11" style="stroke: #A80036; stroke-width: 1.0;"/><path d="M775.0688,431.1406 Q774.4906,431.4375 773.85,431.5859 Q773.2094,431.7344 772.5063,431.7344 Q770.0063,431.7344 768.6859,430.0859 Q767.3656,428.4375 767.3656,425.3125 Q767.3656,422.1875 768.6859,420.5313 Q770.0063,418.875 772.5063,418.875 Q773.2094,418.875 773.8578,419.0313 Q774.5063,419.1875 775.0688,419.4844 L775.0688,422.2031 Q774.4438,421.625 773.85,421.3516 Q773.2563,421.0781 772.6313,421.0781 Q771.2875,421.0781 770.6,422.1484 Q769.9125,423.2188 769.9125,425.3125 Q769.9125,427.4063 770.6,428.4766 Q771.2875,429.5469 772.6313,429.5469 Q773.2563,429.5469 773.85,429.2734 Q774.4438,429 775.0688,428.4219 L775.0688,431.1406 Z "/><text fill="#000000" font-family="sans-serif" font-size="12" lengthAdjust="spacingAndGlyphs" textLength="61" x="786.9" y="429.6543">Categoria</text><line style="stroke: #A80036; stroke-width: 1.5;" x1="754.5" x2="853.5" y1="441.5" y2="441.5"/><text fill="#000000" font-family="sans-serif" font-size="11" lengthAdjust="spacingAndGlyphs" textLength="89" x="759.5" y="455.7104">CharField nome</text><line style="stroke: #A80036; stroke-width: 1.5;" x1="754.5" x2="853.5" y1="462.3047" y2="462.3047"/><!--class Prateleira--><rect fill="#FEFECE" filter="url(#f416ad7)" height="73.6094" style="stroke: #A80036; stroke-width: 1.5;" width="129" x="562.5" y="256.5"/><ellipse cx="593.7" cy="272.5" fill="#ADD1B2" rx="11" ry="11" style="stroke: #A80036; stroke-width: 1.0;"/><path d="M596.6688,278.1406 Q596.0906,278.4375 595.45,278.5859 Q594.8094,278.7344 594.1063,278.7344 Q591.6063,278.7344 590.2859,277.0859 Q588.9656,275.4375 588.9656,272.3125 Q588.9656,269.1875 590.2859,267.5313 Q591.6063,265.875 594.1063,265.875 Q594.8094,265.875 595.4578,266.0313 Q596.1063,266.1875 596.6688,266.4844 L596.6688,269.2031 Q596.0438,268.625 595.45,268.3516 Q594.8563,268.0781 594.2313,268.0781 Q592.8875,268.0781 592.2,269.1484 Q591.5125,270.2188 591.5125,272.3125 Q591.5125,274.4063 592.2,275.4766 Q592.8875,276.5469 594.2313,276.5469 Q594.8563,276.5469 595.45,276.2734 Q596.0438,276 596.6688,275.4219 L596.6688,278.1406 Z "/><text fill="#000000" font-family="sans-serif" font-size="12" lengthAdjust="spacingAndGlyphs" textLength="61" x="611.3" y="276.6543">Prateleira</text><line style="stroke: #A80036; stroke-width: 1.5;" x1="563.5" x2="690.5" y1="288.5" y2="288.5"/><text fill="#000000" font-family="sans-serif" font-size="11" lengthAdjust="spacingAndGlyphs" textLength="94" x="568.5" y="302.7104">CharField codigo</text><text fill="#000000" font-family="sans-serif" font-size="11" lengthAdjust="spacingAndGlyphs" textLength="117" x="568.5" y="315.5151">Catergoria categoria</text><line style="stroke: #A80036; stroke-width: 1.5;" x1="563.5" x2="690.5" y1="322.1094" y2="322.1094"/><!--class Lote--><rect fill="#FEFECE" filter="url(#f416ad7)" height="86.4141" style="stroke: #A80036; stroke-width: 1.5;" width="146" x="894" y="250.5"/><ellipse cx="949.25" cy="266.5" fill="#ADD1B2" rx="11" ry="11" style="stroke: #A80036; stroke-width: 1.0;"/><path d="M952.2188,272.1406 Q951.6406,272.4375 951,272.5859 Q950.3594,272.7344 949.6563,272.7344 Q947.1563,272.7344 945.8359,271.0859 Q944.5156,269.4375 944.5156,266.3125 Q944.5156,263.1875 945.8359,261.5313 Q947.1563,259.875 949.6563,259.875 Q950.3594,259.875 951.0078,260.0313 Q951.6563,260.1875 952.2188,260.4844 L952.2188,263.2031 Q951.5938,262.625 951,262.3516 Q950.4063,262.0781 949.7813,262.0781 Q948.4375,262.0781 947.75,263.1484 Q947.0625,264.2188 947.0625,266.3125 Q947.0625,268.4063 947.75,269.4766 Q948.4375,270.5469 949.7813,270.5469 Q950.4063,270.5469 951,270.2734 Q951.5938,270 952.2188,269.4219 L952.2188,272.1406 Z "/><text fill="#000000" font-family="sans-serif" font-size="12" lengthAdjust="spacingAndGlyphs" textLength="27" x="969.75" y="270.6543">Lote</text><line style="stroke: #A80036; stroke-width: 1.5;" x1="895" x2="1039" y1="282.5" y2="282.5"/><text fill="#000000" font-family="sans-serif" font-size="11" lengthAdjust="spacingAndGlyphs" textLength="94" x="900" y="296.7104">CharField codigo</text><text fill="#000000" font-family="sans-serif" font-size="11" lengthAdjust="spacingAndGlyphs" textLength="134" x="900" y="309.5151">DateField data_validade</text><text fill="#000000" font-family="sans-serif" font-size="11" lengthAdjust="spacingAndGlyphs" textLength="92" x="900" y="322.3198">Produto produto</text><line style="stroke: #A80036; stroke-width: 1.5;" x1="895" x2="1039" y1="328.9141" y2="328.9141"/><!--class Produto--><rect fill="#FEFECE" filter="url(#f416ad7)" height="99.2188" style="stroke: #A80036; stroke-width: 1.5;" width="124" x="1075" y="244"/><ellipse cx="1108.9" cy="260" fill="#ADD1B2" rx="11" ry="11" style="stroke: #A80036; stroke-width: 1.0;"/><path d="M1111.8688,265.6406 Q1111.2906,265.9375 1110.65,266.0859 Q1110.0094,266.2344 1109.3063,266.2344 Q1106.8063,266.2344 1105.4859,264.5859 Q1104.1656,262.9375 1104.1656,259.8125 Q1104.1656,256.6875 1105.4859,255.0313 Q1106.8063,253.375 1109.3063,253.375 Q1110.0094,253.375 1110.6578,253.5313 Q1111.3063,253.6875 1111.8688,253.9844 L1111.8688,256.7031 Q1111.2438,256.125 1110.65,255.8516 Q1110.0563,255.5781 1109.4313,255.5781 Q1108.0875,255.5781 1107.4,256.6484 Q1106.7125,257.7188 1106.7125,259.8125 Q1106.7125,261.9063 1107.4,262.9766 Q1108.0875,264.0469 1109.4313,264.0469 Q1110.0563,264.0469 1110.65,263.7734 Q1111.2438,263.5 1111.8688,262.9219 L1111.8688,265.6406 Z "/><text fill="#000000" font-family="sans-serif" font-size="12" lengthAdjust="spacingAndGlyphs" textLength="50" x="1127.1" y="264.1543">Produto</text><line style="stroke: #A80036; stroke-width: 1.5;" x1="1076" x2="1198" y1="276" y2="276"/><text fill="#000000" font-family="sans-serif" font-size="11" lengthAdjust="spacingAndGlyphs" textLength="94" x="1081" y="290.2104">CharField codigo</text><text fill="#000000" font-family="sans-serif" font-size="11" lengthAdjust="spacingAndGlyphs" textLength="89" x="1081" y="303.0151">CharField nome</text><text fill="#000000" font-family="sans-serif" font-size="11" lengthAdjust="spacingAndGlyphs" textLength="74" x="1081" y="315.8198">Marca marca</text><text fill="#000000" font-family="sans-serif" font-size="11" lengthAdjust="spacingAndGlyphs" textLength="112" x="1081" y="328.6245">Categoria categoria</text><line style="stroke: #A80036; stroke-width: 1.5;" x1="1076" x2="1198" y1="335.2188" y2="335.2188"/><!--class Marca--><rect fill="#FEFECE" filter="url(#f416ad7)" height="73.6094" style="stroke: #A80036; stroke-width: 1.5;" width="132" x="1067" y="403"/><ellipse cx="1109.9" cy="419" fill="#ADD1B2" rx="11" ry="11" style="stroke: #A80036; stroke-width: 1.0;"/><path d="M1112.8688,424.6406 Q1112.2906,424.9375 1111.65,425.0859 Q1111.0094,425.2344 1110.3063,425.2344 Q1107.8063,425.2344 1106.4859,423.5859 Q1105.1656,421.9375 1105.1656,418.8125 Q1105.1656,415.6875 1106.4859,414.0313 Q1107.8063,412.375 1110.3063,412.375 Q1111.0094,412.375 1111.6578,412.5313 Q1112.3063,412.6875 1112.8688,412.9844 L1112.8688,415.7031 Q1112.2438,415.125 1111.65,414.8516 Q1111.0563,414.5781 1110.4313,414.5781 Q1109.0875,414.5781 1108.4,415.6484 Q1107.7125,416.7188 1107.7125,418.8125 Q1107.7125,420.9063 1108.4,421.9766 Q1109.0875,423.0469 1110.4313,423.0469 Q1111.0563,423.0469 1111.65,422.7734 Q1112.2438,422.5 1112.8688,421.9219 L1112.8688,424.6406 Z "/><text fill="#000000" font-family="sans-serif" font-size="12" lengthAdjust="spacingAndGlyphs" textLength="38" x="1130.1" y="423.1543">Marca</text><line style="stroke: #A80036; stroke-width: 1.5;" x1="1068" x2="1198" y1="435" y2="435"/><text fill="#000000" font-family="sans-serif" font-size="11" lengthAdjust="spacingAndGlyphs" textLength="89" x="1073" y="449.2104">CharField nome</text><text fill="#000000" font-family="sans-serif" font-size="11" lengthAdjust="spacingAndGlyphs" textLength="120" x="1073" y="462.0151">Fabricante fabricante</text><line style="stroke: #A80036; stroke-width: 1.5;" x1="1068" x2="1198" y1="468.6094" y2="468.6094"/><!--class Fabricante--><rect fill="#FEFECE" filter="url(#f416ad7)" height="86.4141" style="stroke: #A80036; stroke-width: 1.5;" width="120" x="1073" y="537"/><ellipse cx="1097.45" cy="553" fill="#ADD1B2" rx="11" ry="11" style="stroke: #A80036; stroke-width: 1.0;"/><path d="M1100.4188,558.6406 Q1099.8406,558.9375 1099.2,559.0859 Q1098.5594,559.2344 1097.8563,559.2344 Q1095.3563,559.2344 1094.0359,557.5859 Q1092.7156,555.9375 1092.7156,552.8125 Q1092.7156,549.6875 1094.0359,548.0313 Q1095.3563,546.375 1097.8563,546.375 Q1098.5594,546.375 1099.2078,546.5313 Q1099.8563,546.6875 1100.4188,546.9844 L1100.4188,549.7031 Q1099.7938,549.125 1099.2,548.8516 Q1098.6063,548.5781 1097.9813,548.5781 Q1096.6375,548.5781 1095.95,549.6484 Q1095.2625,550.7188 1095.2625,552.8125 Q1095.2625,554.9063 1095.95,555.9766 Q1096.6375,557.0469 1097.9813,557.0469 Q1098.6063,557.0469 1099.2,556.7734 Q1099.7938,556.5 1100.4188,555.9219 L1100.4188,558.6406 Z "/><text fill="#000000" font-family="sans-serif" font-size="12" lengthAdjust="spacingAndGlyphs" textLength="67" x="1113.55" y="557.1543">Fabricante</text><line style="stroke: #A80036; stroke-width: 1.5;" x1="1074" x2="1192" y1="569" y2="569"/><text fill="#000000" font-family="sans-serif" font-size="11" lengthAdjust="spacingAndGlyphs" textLength="87" x="1079" y="583.2104">Charfield nome</text><text fill="#000000" font-family="sans-serif" font-size="11" lengthAdjust="spacingAndGlyphs" textLength="108" x="1079" y="596.0151">Charfield endereco</text><text fill="#000000" font-family="sans-serif" font-size="11" lengthAdjust="spacingAndGlyphs" textLength="80" x="1079" y="608.8198">Cidade cidade</text><line style="stroke: #A80036; stroke-width: 1.5;" x1="1074" x2="1192" y1="615.4141" y2="615.4141"/><!--class Estoque--><rect fill="#FEFECE" filter="url(#f416ad7)" height="99.2188" style="stroke: #A80036; stroke-width: 1.5;" width="132" x="727" y="244"/><ellipse cx="763.6" cy="260" fill="#ADD1B2" rx="11" ry="11" style="stroke: #A80036; stroke-width: 1.0;"/><path d="M766.5688,265.6406 Q765.9906,265.9375 765.35,266.0859 Q764.7094,266.2344 764.0063,266.2344 Q761.5063,266.2344 760.1859,264.5859 Q758.8656,262.9375 758.8656,259.8125 Q758.8656,256.6875 760.1859,255.0313 Q761.5063,253.375 764.0063,253.375 Q764.7094,253.375 765.3578,253.5313 Q766.0063,253.6875 766.5688,253.9844 L766.5688,256.7031 Q765.9438,256.125 765.35,255.8516 Q764.7563,255.5781 764.1313,255.5781 Q762.7875,255.5781 762.1,256.6484 Q761.4125,257.7188 761.4125,259.8125 Q761.4125,261.9063 762.1,262.9766 Q762.7875,264.0469 764.1313,264.0469 Q764.7563,264.0469 765.35,263.7734 Q765.9438,263.5 766.5688,262.9219 L766.5688,265.6406 Z "/><text fill="#000000" font-family="sans-serif" font-size="12" lengthAdjust="spacingAndGlyphs" textLength="52" x="782.4" y="264.1543">Estoque</text><line style="stroke: #A80036; stroke-width: 1.5;" x1="728" x2="858" y1="276" y2="276"/><text fill="#000000" font-family="sans-serif" font-size="11" lengthAdjust="spacingAndGlyphs" textLength="49" x="733" y="290.2104">Lote lote</text><text fill="#000000" font-family="sans-serif" font-size="11" lengthAdjust="spacingAndGlyphs" textLength="120" x="733" y="303.0151">FloatField quantidade</text><line style="stroke: #A80036; stroke-width: 1.5;" x1="728" x2="858" y1="309.6094" y2="309.6094"/><text fill="#000000" font-family="sans-serif" font-size="11" lengthAdjust="spacingAndGlyphs" textLength="89" x="733" y="323.8198">adcionar(quant)</text><text fill="#000000" font-family="sans-serif" font-size="11" lengthAdjust="spacingAndGlyphs" textLength="85" x="733" y="336.6245">subtrair(quant)</text><!--class PedidoCompra--><rect fill="#FEFECE" filter="url(#f416ad7)" height="124.8281" style="stroke: #A80036; stroke-width: 1.5;" width="146" x="175" y="59"/><ellipse cx="200.35" cy="75" fill="#ADD1B2" rx="11" ry="11" style="stroke: #A80036; stroke-width: 1.0;"/><path d="M203.3188,80.6406 Q202.7406,80.9375 202.1,81.0859 Q201.4594,81.2344 200.7563,81.2344 Q198.2563,81.2344 196.9359,79.5859 Q195.6156,77.9375 195.6156,74.8125 Q195.6156,71.6875 196.9359,70.0313 Q198.2563,68.375 200.7563,68.375 Q201.4594,68.375 202.1078,68.5313 Q202.7563,68.6875 203.3188,68.9844 L203.3188,71.7031 Q202.6938,71.125 202.1,70.8516 Q201.5063,70.5781 200.8813,70.5781 Q199.5375,70.5781 198.85,71.6484 Q198.1625,72.7188 198.1625,74.8125 Q198.1625,76.9063 198.85,77.9766 Q199.5375,79.0469 200.8813,79.0469 Q201.5063,79.0469 202.1,78.7734 Q202.6938,78.5 203.3188,77.9219 L203.3188,80.6406 Z "/><text fill="#000000" font-family="sans-serif" font-size="12" lengthAdjust="spacingAndGlyphs" textLength="91" x="216.65" y="79.1543">PedidoCompra</text><line style="stroke: #A80036; stroke-width: 1.5;" x1="176" x2="320" y1="91" y2="91"/><text fill="#000000" font-family="sans-serif" font-size="11" lengthAdjust="spacingAndGlyphs" textLength="101" x="181" y="105.2104">CharField numero</text><text fill="#000000" font-family="sans-serif" font-size="11" lengthAdjust="spacingAndGlyphs" textLength="125" x="181" y="118.0151">DataField data_pedido</text><text fill="#000000" font-family="sans-serif" font-size="11" lengthAdjust="spacingAndGlyphs" textLength="84" x="181" y="130.8198">FloatField frete</text><text fill="#000000" font-family="sans-serif" font-size="11" lengthAdjust="spacingAndGlyphs" textLength="82" x="181" y="143.6245">IntFielde prazo</text><text fill="#000000" font-family="sans-serif" font-size="11" lengthAdjust="spacingAndGlyphs" textLength="130" x="181" y="156.4292">Fornecedor fornecedor</text><text fill="#000000" font-family="sans-serif" font-size="11" lengthAdjust="spacingAndGlyphs" textLength="130" x="181" y="169.2339">Comprador comprador</text><line style="stroke: #A80036; stroke-width: 1.5;" x1="176" x2="320" y1="175.8281" y2="175.8281"/><!--class ItemCompra--><rect fill="#FEFECE" filter="url(#f416ad7)" height="112.0234" style="stroke: #A80036; stroke-width: 1.5;" width="150" x="356" y="65.5"/><ellipse cx="390.35" cy="81.5" fill="#ADD1B2" rx="11" ry="11" style="stroke: #A80036; stroke-width: 1.0;"/><path d="M393.3188,87.1406 Q392.7406,87.4375 392.1,87.5859 Q391.4594,87.7344 390.7563,87.7344 Q388.2563,87.7344 386.9359,86.0859 Q385.6156,84.4375 385.6156,81.3125 Q385.6156,78.1875 386.9359,76.5313 Q388.2563,74.875 390.7563,74.875 Q391.4594,74.875 392.1078,75.0313 Q392.7563,75.1875 393.3188,75.4844 L393.3188,78.2031 Q392.6938,77.625 392.1,77.3516 Q391.5063,77.0781 390.8813,77.0781 Q389.5375,77.0781 388.85,78.1484 Q388.1625,79.2188 388.1625,81.3125 Q388.1625,83.4063 388.85,84.4766 Q389.5375,85.5469 390.8813,85.5469 Q391.5063,85.5469 392.1,85.2734 Q392.6938,85 393.3188,84.4219 L393.3188,87.1406 Z "/><text fill="#000000" font-family="sans-serif" font-size="12" lengthAdjust="spacingAndGlyphs" textLength="75" x="408.65" y="85.6543">ItemCompra</text><line style="stroke: #A80036; stroke-width: 1.5;" x1="357" x2="505" y1="97.5" y2="97.5"/><text fill="#000000" font-family="sans-serif" font-size="11" lengthAdjust="spacingAndGlyphs" textLength="92" x="362" y="111.7104">Produto produto</text><text fill="#000000" font-family="sans-serif" font-size="11" lengthAdjust="spacingAndGlyphs" textLength="120" x="362" y="124.5151">FloatField quantidade</text><text fill="#000000" font-family="sans-serif" font-size="11" lengthAdjust="spacingAndGlyphs" textLength="138" x="362" y="137.3198">FloatField preco_unitario</text><text fill="#000000" font-family="sans-serif" font-size="11" lengthAdjust="spacingAndGlyphs" textLength="109" x="362" y="150.1245">FloatField desconto</text><text fill="#000000" font-family="sans-serif" font-size="11" lengthAdjust="spacingAndGlyphs" textLength="116" x="362" y="162.9292">FloatField acrescimo</text><line style="stroke: #A80036; stroke-width: 1.5;" x1="357" x2="505" y1="169.5234" y2="169.5234"/><!--class Fornecedor--><rect fill="#FEFECE" filter="url(#f416ad7)" height="86.4141" style="stroke: #A80036; stroke-width: 1.5;" width="124" x="252" y="250.5"/><ellipse cx="276" cy="266.5" fill="#ADD1B2" rx="11" ry="11" style="stroke: #A80036; stroke-width: 1.0;"/><path d="M278.9688,272.1406 Q278.3906,272.4375 277.75,272.5859 Q277.1094,272.7344 276.4063,272.7344 Q273.9063,272.7344 272.5859,271.0859 Q271.2656,269.4375 271.2656,266.3125 Q271.2656,263.1875 272.5859,261.5313 Q273.9063,259.875 276.4063,259.875 Q277.1094,259.875 277.7578,260.0313 Q278.4063,260.1875 278.9688,260.4844 L278.9688,263.2031 Q278.3438,262.625 277.75,262.3516 Q277.1563,262.0781 276.5313,262.0781 Q275.1875,262.0781 274.5,263.1484 Q273.8125,264.2188 273.8125,266.3125 Q273.8125,268.4063 274.5,269.4766 Q275.1875,270.5469 276.5313,270.5469 Q277.1563,270.5469 277.75,270.2734 Q278.3438,270 278.9688,269.4219 L278.9688,272.1406 Z "/><text fill="#000000" font-family="sans-serif" font-size="12" lengthAdjust="spacingAndGlyphs" textLength="72" x="292" y="270.6543">Fornecedor</text><line style="stroke: #A80036; stroke-width: 1.5;" x1="253" x2="375" y1="282.5" y2="282.5"/><text fill="#000000" font-family="sans-serif" font-size="11" lengthAdjust="spacingAndGlyphs" textLength="87" x="258" y="296.7104">Charfield nome</text><text fill="#000000" font-family="sans-serif" font-size="11" lengthAdjust="spacingAndGlyphs" textLength="108" x="258" y="309.5151">Charfield endereco</text><text fill="#000000" font-family="sans-serif" font-size="11" lengthAdjust="spacingAndGlyphs" textLength="80" x="258" y="322.3198">Cidade cidade</text><line style="stroke: #A80036; stroke-width: 1.5;" x1="253" x2="375" y1="328.9141" y2="328.9141"/><!--class Comprador--><rect fill="#FEFECE" filter="url(#f416ad7)" height="60.8047" style="stroke: #A80036; stroke-width: 1.5;" width="101" x="38.5" y="91"/><ellipse cx="53.5" cy="107" fill="#ADD1B2" rx="11" ry="11" style="stroke: #A80036; stroke-width: 1.0;"/><path d="M56.4688,112.6406 Q55.8906,112.9375 55.25,113.0859 Q54.6094,113.2344 53.9063,113.2344 Q51.4063,113.2344 50.0859,111.5859 Q48.7656,109.9375 48.7656,106.8125 Q48.7656,103.6875 50.0859,102.0313 Q51.4063,100.375 53.9063,100.375 Q54.6094,100.375 55.2578,100.5313 Q55.9063,100.6875 56.4688,100.9844 L56.4688,103.7031 Q55.8438,103.125 55.25,102.8516 Q54.6563,102.5781 54.0313,102.5781 Q52.6875,102.5781 52,103.6484 Q51.3125,104.7188 51.3125,106.8125 Q51.3125,108.9063 52,109.9766 Q52.6875,111.0469 54.0313,111.0469 Q54.6563,111.0469 55.25,110.7734 Q55.8438,110.5 56.4688,109.9219 L56.4688,112.6406 Z "/><text fill="#000000" font-family="sans-serif" font-size="12" lengthAdjust="spacingAndGlyphs" textLength="69" x="67.5" y="111.1543">Comprador</text><line style="stroke: #A80036; stroke-width: 1.5;" x1="39.5" x2="138.5" y1="123" y2="123"/><text fill="#000000" font-family="sans-serif" font-size="11" lengthAdjust="spacingAndGlyphs" textLength="89" x="44.5" y="137.2104">CharField nome</text><line style="stroke: #A80036; stroke-width: 1.5;" x1="39.5" x2="138.5" y1="143.8047" y2="143.8047"/><!--class PedidoVenda--><rect fill="#FEFECE" filter="url(#f416ad7)" height="99.2188" style="stroke: #A80036; stroke-width: 1.5;" width="137" x="1440.5" y="72"/><ellipse cx="1465.4" cy="88" fill="#ADD1B2" rx="11" ry="11" style="stroke: #A80036; stroke-width: 1.0;"/><path d="M1468.3688,93.6406 Q1467.7906,93.9375 1467.15,94.0859 Q1466.5094,94.2344 1465.8063,94.2344 Q1463.3063,94.2344 1461.9859,92.5859 Q1460.6656,90.9375 1460.6656,87.8125 Q1460.6656,84.6875 1461.9859,83.0313 Q1463.3063,81.375 1465.8063,81.375 Q1466.5094,81.375 1467.1578,81.5313 Q1467.8063,81.6875 1468.3688,81.9844 L1468.3688,84.7031 Q1467.7438,84.125 1467.15,83.8516 Q1466.5563,83.5781 1465.9313,83.5781 Q1464.5875,83.5781 1463.9,84.6484 Q1463.2125,85.7188 1463.2125,87.8125 Q1463.2125,89.9063 1463.9,90.9766 Q1464.5875,92.0469 1465.9313,92.0469 Q1466.5563,92.0469 1467.15,91.7734 Q1467.7438,91.5 1468.3688,90.9219 L1468.3688,93.6406 Z "/><text fill="#000000" font-family="sans-serif" font-size="12" lengthAdjust="spacingAndGlyphs" textLength="83" x="1481.6" y="92.1543">PedidoVenda</text><line style="stroke: #A80036; stroke-width: 1.5;" x1="1441.5" x2="1576.5" y1="104" y2="104"/><text fill="#000000" font-family="sans-serif" font-size="11" lengthAdjust="spacingAndGlyphs" textLength="101" x="1446.5" y="118.2104">CharField numero</text><text fill="#000000" font-family="sans-serif" font-size="11" lengthAdjust="spacingAndGlyphs" textLength="125" x="1446.5" y="131.0151">DataField data_pedido</text><text fill="#000000" font-family="sans-serif" font-size="11" lengthAdjust="spacingAndGlyphs" textLength="111" x="1446.5" y="143.8198">Vendedor vendedor</text><text fill="#000000" font-family="sans-serif" font-size="11" lengthAdjust="spacingAndGlyphs" textLength="80" x="1446.5" y="156.6245">Cliente cliente</text><line style="stroke: #A80036; stroke-width: 1.5;" x1="1441.5" x2="1576.5" y1="163.2188" y2="163.2188"/><!--class ItemVenda--><rect fill="#FEFECE" filter="url(#f416ad7)" height="86.4141" style="stroke: #A80036; stroke-width: 1.5;" width="150" x="1255" y="78.5"/><ellipse cx="1292.95" cy="94.5" fill="#ADD1B2" rx="11" ry="11" style="stroke: #A80036; stroke-width: 1.0;"/><path d="M1295.9188,100.1406 Q1295.3406,100.4375 1294.7,100.5859 Q1294.0594,100.7344 1293.3563,100.7344 Q1290.8563,100.7344 1289.5359,99.0859 Q1288.2156,97.4375 1288.2156,94.3125 Q1288.2156,91.1875 1289.5359,89.5313 Q1290.8563,87.875 1293.3563,87.875 Q1294.0594,87.875 1294.7078,88.0313 Q1295.3563,88.1875 1295.9188,88.4844 L1295.9188,91.2031 Q1295.2938,90.625 1294.7,90.3516 Q1294.1063,90.0781 1293.4813,90.0781 Q1292.1375,90.0781 1291.45,91.1484 Q1290.7625,92.2188 1290.7625,94.3125 Q1290.7625,96.4063 1291.45,97.4766 Q1292.1375,98.5469 1293.4813,98.5469 Q1294.1063,98.5469 1294.7,98.2734 Q1295.2938,98 1295.9188,97.4219 L1295.9188,100.1406 Z "/><text fill="#000000" font-family="sans-serif" font-size="12" lengthAdjust="spacingAndGlyphs" textLength="67" x="1312.05" y="98.6543">ItemVenda</text><line style="stroke: #A80036; stroke-width: 1.5;" x1="1256" x2="1404" y1="110.5" y2="110.5"/><text fill="#000000" font-family="sans-serif" font-size="11" lengthAdjust="spacingAndGlyphs" textLength="92" x="1261" y="124.7104">Produto produto</text><text fill="#000000" font-family="sans-serif" font-size="11" lengthAdjust="spacingAndGlyphs" textLength="120" x="1261" y="137.5151">FloatField quantidade</text><text fill="#000000" font-family="sans-serif" font-size="11" lengthAdjust="spacingAndGlyphs" textLength="138" x="1261" y="150.3198">FloatField preco_unitario</text><line style="stroke: #A80036; stroke-width: 1.5;" x1="1256" x2="1404" y1="156.9141" y2="156.9141"/><!--class Cliente--><rect fill="#FEFECE" filter="url(#f416ad7)" height="60.8047" style="stroke: #A80036; stroke-width: 1.5;" width="101" x="1458.5" y="263"/><ellipse cx="1485.2" cy="279" fill="#ADD1B2" rx="11" ry="11" style="stroke: #A80036; stroke-width: 1.0;"/><path d="M1488.1688,284.6406 Q1487.5906,284.9375 1486.95,285.0859 Q1486.3094,285.2344 1485.6063,285.2344 Q1483.1063,285.2344 1481.7859,283.5859 Q1480.4656,281.9375 1480.4656,278.8125 Q1480.4656,275.6875 1481.7859,274.0313 Q1483.1063,272.375 1485.6063,272.375 Q1486.3094,272.375 1486.9578,272.5313 Q1487.6063,272.6875 1488.1688,272.9844 L1488.1688,275.7031 Q1487.5438,275.125 1486.95,274.8516 Q1486.3563,274.5781 1485.7313,274.5781 Q1484.3875,274.5781 1483.7,275.6484 Q1483.0125,276.7188 1483.0125,278.8125 Q1483.0125,280.9063 1483.7,281.9766 Q1484.3875,283.0469 1485.7313,283.0469 Q1486.3563,283.0469 1486.95,282.7734 Q1487.5438,282.5 1488.1688,281.9219 L1488.1688,284.6406 Z "/><text fill="#000000" font-family="sans-serif" font-size="12" lengthAdjust="spacingAndGlyphs" textLength="43" x="1501.8" y="283.1543">Cliente</text><line style="stroke: #A80036; stroke-width: 1.5;" x1="1459.5" x2="1558.5" y1="295" y2="295"/><text fill="#000000" font-family="sans-serif" font-size="11" lengthAdjust="spacingAndGlyphs" textLength="89" x="1464.5" y="309.2104">CharField nome</text><line style="stroke: #A80036; stroke-width: 1.5;" x1="1459.5" x2="1558.5" y1="315.8047" y2="315.8047"/><!--class Vendedor--><rect fill="#FEFECE" filter="url(#f416ad7)" height="60.8047" style="stroke: #A80036; stroke-width: 1.5;" width="101" x="1322.5" y="263"/><ellipse cx="1341.1" cy="279" fill="#ADD1B2" rx="11" ry="11" style="stroke: #A80036; stroke-width: 1.0;"/><path d="M1344.0688,284.6406 Q1343.4906,284.9375 1342.85,285.0859 Q1342.2094,285.2344 1341.5063,285.2344 Q1339.0063,285.2344 1337.6859,283.5859 Q1336.3656,281.9375 1336.3656,278.8125 Q1336.3656,275.6875 1337.6859,274.0313 Q1339.0063,272.375 1341.5063,272.375 Q1342.2094,272.375 1342.8578,272.5313 Q1343.5063,272.6875 1344.0688,272.9844 L1344.0688,275.7031 Q1343.4438,275.125 1342.85,274.8516 Q1342.2563,274.5781 1341.6313,274.5781 Q1340.2875,274.5781 1339.6,275.6484 Q1338.9125,276.7188 1338.9125,278.8125 Q1338.9125,280.9063 1339.6,281.9766 Q1340.2875,283.0469 1341.6313,283.0469 Q1342.2563,283.0469 1342.85,282.7734 Q1343.4438,282.5 1344.0688,281.9219 L1344.0688,284.6406 Z "/><text fill="#000000" font-family="sans-serif" font-size="12" lengthAdjust="spacingAndGlyphs" textLength="61" x="1355.9" y="283.1543">Vendedor</text><line style="stroke: #A80036; stroke-width: 1.5;" x1="1323.5" x2="1422.5" y1="295" y2="295"/><text fill="#000000" font-family="sans-serif" font-size="11" lengthAdjust="spacingAndGlyphs" textLength="89" x="1328.5" y="309.2104">CharField nome</text><line style="stroke: #A80036; stroke-width: 1.5;" x1="1323.5" x2="1422.5" y1="315.8047" y2="315.8047"/><path d="M1269,797.5467 C1269,813.16 1269,829.7011 1269,843.9032 " fill="none" style="stroke: #A80036; stroke-width: 1.0;"/><polygon fill="#A80036" points="1269,784.147,1265,790.147,1269,796.147,1273,790.147,1269,784.147" style="stroke: #A80036; stroke-width: 1.0;"/><path d="M1196.9947,741 C1204.121,741 1211.2472,741 1218.3735,741 " fill="none" style="stroke: #A80036; stroke-width: 1.0;"/><polygon fill="#A80036" points="1183.7344,741,1189.7344,745,1195.7344,741,1189.7344,737,1183.7344,741" style="stroke: #A80036; stroke-width: 1.0;"/><path d="M832.3094,233.8414 C848.7725,215.2776 869.8569,198.1681 894.5,192.5 C926.1188,185.2274 1008.8812,185.2274 1040.5,192.5 C1048.9267,194.4382 1051.1589,195.7119 1058,201 C1073.7063,213.1408 1088.5296,228.8372 1101.0007,243.8411 " fill="none" style="stroke: #A80036; stroke-width: 1.0;"/><polygon fill="#A80036" points="823.8869,243.9334,830.8024,241.8898,831.5758,234.7203,824.6603,236.7639,823.8869,243.9334" style="stroke: #A80036; stroke-width: 1.0;"/><path d="M1135.2867,356.2493 C1134.8519,372.1756 1134.3985,388.7782 1134.0113,402.9609 " fill="none" style="stroke: #A80036; stroke-width: 1.0;"/><polygon fill="#A80036" points="1135.6458,343.0982,1131.4835,348.9868,1135.3182,355.0937,1139.4805,349.2052,1135.6458,343.0982" style="stroke: #A80036; stroke-width: 1.0;"/><path d="M1053.1128,293.5 C1060.3717,293.5 1067.6305,293.5 1074.8894,293.5 " fill="none" style="stroke: #A80036; stroke-width: 1.0;"/><polygon fill="#A80036" points="1040.0469,293.5,1046.0469,297.5,1052.0469,293.5,1046.0469,289.5,1040.0469,293.5" style="stroke: #A80036; stroke-width: 1.0;"/><path d="M682.4117,339.3634 C709.968,362.1713 742.5242,389.1175 767.0104,409.3843 " fill="none" style="stroke: #A80036; stroke-width: 1.0;"/><polygon fill="#A80036" points="672.1225,330.8472,674.1942,337.7543,681.3667,338.4986,679.2951,331.5915,672.1225,330.8472" style="stroke: #A80036; stroke-width: 1.0;"/><path d="M1073.4121,350.9452 C1068.3548,354.4085 1063.1911,357.6414 1058,360.5 C992.2273,396.7194 907.6115,418.9899 854.5762,430.4262 " fill="none" style="stroke: #A80036; stroke-width: 1.0;"/><polygon fill="#A80036" points="1084.2829,343.0508,1077.0776,343.3399,1074.5731,350.1021,1081.7784,349.813,1084.2829,343.0508" style="stroke: #A80036; stroke-width: 1.0;"/><path d="M1133,490.1684 C1133,505.4804 1133,522.1724 1133,536.9672 " fill="none" style="stroke: #A80036; stroke-width: 1.0;"/><polygon fill="#A80036" points="1133,477.1499,1129,483.1499,1133,489.1499,1137,483.1499,1133,477.1499" style="stroke: #A80036; stroke-width: 1.0;"/><path d="M1133,636.3361 C1133,656.486 1133,678.8622 1133,697.7359 " fill="none" style="stroke: #A80036; stroke-width: 1.0;"/><polygon fill="#A80036" points="1133,623.145,1129,629.145,1133,635.145,1137,629.145,1133,623.145" style="stroke: #A80036; stroke-width: 1.0;"/><path d="M342.9707,121.5 C335.7376,121.5 328.5046,121.5 321.2715,121.5 " fill="none" style="stroke: #A80036; stroke-width: 1.0;"/><polygon fill="#A80036" points="355.9903,121.5,349.9903,117.5,343.9903,121.5,349.9903,125.5,355.9903,121.5" style="stroke: #A80036; stroke-width: 1.0;"/><path d="M519.3741,124.8994 C669.4961,131.9506 966.9115,151.8235 1058,201 C1076.7693,211.1331 1093.0252,227.6686 1105.8294,243.9774 " fill="none" style="stroke: #A80036; stroke-width: 1.0;"/><polygon fill="#A80036" points="506.1937,124.2956,512.0043,128.566,518.1811,124.8448,512.3705,120.5744,506.1937,124.2956" style="stroke: #A80036; stroke-width: 1.0;"/><path d="M276.7337,196.3818 C283.8116,214.8272 291.1558,233.9666 297.4343,250.3287 " fill="none" style="stroke: #A80036; stroke-width: 1.0;"/><polygon fill="#A80036" points="272.0142,184.0825,270.4292,191.1173,276.3133,195.286,277.8982,188.2512,272.0142,184.0825" style="stroke: #A80036; stroke-width: 1.0;"/><path d="M333.6864,349.0172 C365.1664,429.039 434.8537,575.067 546,647 C634.5947,704.3378 956.2257,730.0534 1082.0465,738.0794 " fill="none" style="stroke: #A80036; stroke-width: 1.0;"/><polygon fill="#A80036" points="328.9616,336.7624,327.3878,343.7997,333.2784,347.959,334.8522,340.9218,328.9616,336.7624" style="stroke: #A80036; stroke-width: 1.0;"/><path d="M152.7963,121.5 C160.117,121.5 167.4376,121.5 174.7582,121.5 " fill="none" style="stroke: #A80036; stroke-width: 1.0;"/><polygon fill="#A80036" points="139.6191,121.5,145.6191,125.5,151.6191,121.5,145.6191,117.5,139.6191,121.5" style="stroke: #A80036; stroke-width: 1.0;"/><path d="M1418.3988,121.5 C1425.7503,121.5 1433.1018,121.5 1440.4533,121.5 " fill="none" style="stroke: #A80036; stroke-width: 1.0;"/><polygon fill="#A80036" points="1405.166,121.5,1411.166,125.5,1417.166,121.5,1411.166,117.5,1405.166,121.5" style="stroke: #A80036; stroke-width: 1.0;"/><path d="M1270.3444,173.3372 C1259.8692,182.5191 1249.0937,192.0156 1239,201 C1223.4649,214.8279 1206.7084,229.9404 1191.355,243.8672 " fill="none" style="stroke: #A80036; stroke-width: 1.0;"/><polygon fill="#A80036" points="1280.2635,164.6573,1273.1141,165.5983,1271.2329,172.5597,1278.3823,171.6187,1280.2635,164.6573" style="stroke: #A80036; stroke-width: 1.0;"/><path d="M1509,184.4529 C1509,211.1514 1509,241.0495 1509,262.7777 " fill="none" style="stroke: #A80036; stroke-width: 1.0;"/><polygon fill="#A80036" points="1509,171.2495,1505,177.2495,1509,183.2495,1513,177.2495,1509,171.2495" style="stroke: #A80036; stroke-width: 1.0;"/><path d="M1457.0202,181.3234 C1451.5429,187.907 1446.1119,194.5576 1441,201 C1425.0183,221.1413 1407.8765,244.4716 1394.8018,262.6628 " fill="none" style="stroke: #A80036; stroke-width: 1.0;"/><polygon fill="#A80036" points="1465.6263,171.0725,1458.7049,173.0958,1457.9105,180.263,1464.8319,178.2397,1465.6263,171.0725" style="stroke: #A80036; stroke-width: 1.0;"/><path d="M1481.7877,335.1556 C1434.1383,405.7952 1329.6924,550.7699 1215,647 C1209.51,651.6063 1206.4327,650.3262 1201,655 C1186.5709,667.4135 1173.0386,683.2515 1161.9041,697.9445 " fill="none" style="stroke: #A80036; stroke-width: 1.0;"/><polygon fill="#A80036" points="1489.2095,324.0704,1482.5476,326.8307,1482.5334,334.0418,1489.1952,331.2815,1489.2095,324.0704" style="stroke: #A80036; stroke-width: 1.0;"/></g></svg>